<svg width="2090" height="1228" viewBox="0 0 2090 1228" fill="none" xmlns="http://www.w3.org/2000/svg">
<path d="M158.84 951.7H167.2V959.375H158.84V951.7Z" fill="#222034"/>
<path d="M200.64 936.35H209V944.025H200.64V936.35Z" fill="#222034"/>
<path d="M117.04 936.35H125.4V944.025H117.04V936.35Z" fill="#222034"/>
<path d="M1354.32 874.95H1362.68V882.625H1354.32V874.95Z" fill="#222034"/>
<path d="M1337.6 874.95H1345.96V882.625H1337.6V874.95Z" fill="#222034"/>
<path d="M1554.96 867.275H1563.32V874.95H1554.96V867.275Z" fill="#222034"/>
<path d="M1362.68 867.275H1371.04V874.95H1362.68V867.275Z" fill="#222034"/>
<path d="M1964.6 859.6H1972.96V874.95H1964.6V859.6Z" fill="#222034"/>
<path d="M1864.28 859.6H1872.64V867.275H1864.28V859.6Z" fill="#222034"/>
<path d="M1521.52 859.6H1529.88V867.275H1521.52V859.6Z" fill="#222034"/>
<path d="M1295.8 859.6H1304.16V867.275H1295.8V859.6Z" fill="#222034"/>
<path d="M1939.52 851.925H1947.88V859.6H1939.52V851.925Z" fill="#222034"/>
<path d="M1872.64 851.925H1881V859.6H1872.64V851.925Z" fill="#222034"/>
<path d="M1839.2 851.925H1847.56V859.6H1839.2V851.925Z" fill="#222034"/>
<path d="M1646.92 851.925H1655.28V859.6H1646.92V851.925Z" fill="#222034"/>
<path d="M1613.48 851.925H1621.84V859.6H1613.48V851.925Z" fill="#222034"/>
<path d="M1571.68 851.925H1580.04V859.6H1571.68V851.925Z" fill="#222034"/>
<path d="M1830.84 844.25H1839.2V851.925H1830.84V844.25Z" fill="#222034"/>
<path d="M1270.72 844.25H1279.08V851.925H1270.72V844.25Z" fill="#222034"/>
<path d="M1245.64 844.25H1254V851.925H1245.64V844.25Z" fill="#222034"/>
<path d="M1036.64 844.25H1045V851.925H1036.64V844.25Z" fill="#222034"/>
<path d="M1839.2 828.9H1847.56V844.25H1839.2V828.9Z" fill="#222034"/>
<path d="M1254 836.575H1262.36V844.25H1254V836.575Z" fill="#222034"/>
<path d="M1237.28 836.575H1245.64V844.25H1237.28V836.575Z" fill="#222034"/>
<path d="M334.4 836.575H342.76V844.25H334.4V836.575Z" fill="#222034"/>
<path d="M1822.48 828.9H1830.84V836.575H1822.48V828.9Z" fill="#222034"/>
<path d="M1228.92 828.9H1237.28V836.575H1228.92V828.9Z" fill="#222034"/>
<path d="M1111.88 828.9H1120.24V821.225H1111.88V813.55H1103.52V821.225H1095.16V836.575H1103.52V844.25H1111.88V828.9Z" fill="#222034"/>
<path d="M961.4 828.9H969.76V836.575H961.4V828.9Z" fill="#222034"/>
<path d="M969.76 821.225H978.12V828.9H969.76V821.225Z" fill="#222034"/>
<path d="M861.08 798.2H869.44V805.875H861.08V798.2Z" fill="#222034"/>
<path d="M802.56 798.2H810.92V805.875H802.56V798.2Z" fill="#222034"/>
<path d="M660.44 798.2H668.8V805.875H660.44V798.2Z" fill="#222034"/>
<path d="M710.6 790.525H718.96V798.2H710.6V790.525Z" fill="#222034"/>
<path d="M601.92 775.175H610.28V782.85H601.92V775.175Z" fill="#222034"/>
<path d="M66.8799 606.325H75.2399V614H66.8799V606.325Z" fill="#222034"/>
<path d="M627 544.925H635.36V552.6H627V544.925Z" fill="#222034"/>
<path d="M1705.44 537.25H1713.8V544.925H1705.44V537.25Z" fill="#222034"/>
<path d="M1279.08 537.25H1295.8V544.925H1279.08V537.25Z" fill="#222034"/>
<path d="M1805.76 529.575H1814.12V537.25H1805.76V529.575Z" fill="#222034"/>
<path d="M1295.8 529.575H1304.16V537.25H1295.8V529.575Z" fill="#222034"/>
<path d="M1270.72 521.9H1279.08V537.25H1270.72V521.9Z" fill="#222034"/>
<path d="M1304.16 514.225H1312.52V529.575H1304.16V514.225Z" fill="#222034"/>
<path d="M401.28 514.225H392.92V529.575H401.28V544.925H409.64V521.9H401.28V514.225Z" fill="#222034"/>
<path d="M1270.72 460.5H1262.36V498.875H1254V506.55H1262.36V521.9H1270.72V460.5Z" fill="#222034"/>
<path d="M1245.64 506.55H1254V514.225H1245.64V506.55Z" fill="#222034"/>
<path d="M585.2 506.55H593.56V514.225H585.2V506.55Z" fill="#222034"/>
<path d="M409.64 498.875H418V521.9H409.64V498.875Z" fill="#222034"/>
<path d="M376.2 521.9H384.56V514.225H392.92V506.55H384.56V491.2H376.2V521.9Z" fill="#222034"/>
<path d="M2039.84 491.2H2048.2V498.875H2039.84V491.2Z" fill="#222034"/>
<path d="M443.08 491.2H451.44V498.875H443.08V491.2Z" fill="#222034"/>
<path d="M1329.24 483.525H1337.6V491.2H1329.24V483.525Z" fill="#222034"/>
<path d="M451.44 483.525H459.8V491.2H451.44V483.525Z" fill="#222034"/>
<path d="M434.72 475.85H443.08V491.2H434.72V475.85Z" fill="#222034"/>
<path d="M418 475.85H426.36V498.875H418V475.85Z" fill="#222034"/>
<path d="M1337.6 468.175H1345.96V483.525H1337.6V468.175Z" fill="#222034"/>
<path d="M1036.64 468.175H1045V475.85H1036.64V468.175Z" fill="#222034"/>
<path d="M1011.56 460.5H1019.92V468.175H1011.56V460.5Z" fill="#222034"/>
<path d="M459.8 460.5H468.16V483.525H459.8V460.5Z" fill="#222034"/>
<path d="M1270.72 452.825H1287.44V460.5H1270.72V452.825Z" fill="#222034"/>
<path d="M334.4 452.825V460.5H342.76V475.85H351.12V452.825H334.4Z" fill="#222034"/>
<path d="M326.04 437.475H334.4V452.825H326.04V437.475Z" fill="#222034"/>
<path d="M1162.04 429.8H1170.4V437.475H1162.04V429.8Z" fill="#222034"/>
<path d="M944.68 429.8H953.04V437.475H944.68V429.8Z" fill="#222034"/>
<path d="M484.88 368.4H493.24V383.75H484.88V368.4Z" fill="#222034"/>
<path d="M434.72 368.4H443.08V376.075H434.72V368.4Z" fill="#222034"/>
<path d="M409.64 368.4H418V383.75H409.64V368.4Z" fill="#222034"/>
<path d="M392.92 360.725H401.28V376.075H392.92V360.725Z" fill="#222034"/>
<path d="M601.92 353.05H610.28V360.725H601.92V353.05Z" fill="#222034"/>
<path d="M0 0V1228H2090V0H0ZM2006.4 483.525H2014.76V491.2H2023.12V498.875H2031.48V483.525H2048.2V491.2H2056.56V506.55H2064.92V514.225H2073.28V521.9H2056.56V514.225H2039.84V506.55H2023.12V498.875H2014.76V491.2H2006.4V483.525ZM1772.32 537.25H1780.68V521.9H1789.04V529.575H1797.4V521.9H1814.12V529.575H1830.84V521.9H1839.2V537.25H1830.84V544.925H1822.48V552.6H1805.76V560.275H1772.32V537.25ZM1563.32 544.925H1571.68V537.25H1596.76V544.925H1605.12V552.6H1613.48V544.925H1621.84V552.6H1646.92V537.25H1655.28V544.925H1663.64V560.275H1672V567.95H1638.56V560.275H1580.04V552.6H1563.32V544.925ZM1404.48 437.475H1412.84V445.15H1404.48V437.475ZM1362.68 414.45H1371.04V422.125H1362.68V414.45ZM1203.84 429.8H1212.2V422.125H1228.92V429.8H1237.28V437.475H1254V445.15H1245.64V452.825H1187.12V445.15H1195.48V437.475H1203.84V429.8ZM1145.32 437.475H1153.68V429.8H1162.04V422.125H1170.4V414.45H1178.76V422.125H1187.12V414.45H1195.48V429.8H1187.12V437.475H1178.76V445.15H1170.4V452.825H1153.68V445.15H1145.32V437.475ZM1086.8 468.175H1103.52V460.5H1111.88V468.175H1120.24V452.825H1128.6V445.15H1136.96V460.5H1145.32V468.175H1136.96V475.85H1128.6V491.2H1120.24V483.525H1103.52V475.85H1086.8V468.175ZM1070.08 460.5H1078.44V468.175H1070.08V460.5ZM158.84 429.8H167.2V437.475H158.84V429.8ZM66.88 437.475H75.24V429.8H83.6V422.125H91.96V414.45H108.68V422.125H91.96V429.8H117.04V422.125H125.4V429.8H117.04V437.475H125.4V445.15H133.76V429.8H150.48V445.15H133.76V452.825H117.04V460.5H100.32V468.175H91.96V460.5H83.6V452.825H75.24V445.15H66.88V437.475ZM16.72 483.525H25.08V468.175H33.44V460.5H50.16V452.825H66.88V460.5H75.24V475.85H66.88V483.525H50.16V491.2H33.44V498.875H25.08V506.55H16.72V483.525ZM234.08 959.375H225.72V951.7H234.08V959.375ZM267.52 936.35H259.16V928.675H267.52V936.35ZM509.96 621.675H501.6V721.45H493.24V744.475H484.88V767.5H476.52V782.85H468.16V821.225H459.8V836.575H434.72V844.25H409.64V836.575H392.92V851.925H384.56V836.575H376.2V851.925H367.84V844.25H351.12V851.925H334.4V844.25H326.04V851.925H309.32V836.575H300.96V844.25H292.6V851.925H284.24V836.575H275.88V851.925H267.52V844.25H259.16V867.275H267.52V897.975H275.88V905.65H267.52V913.325H250.8V921H242.44V928.675H234.08V936.35H225.72V944.025H209V951.7H217.36V959.375H200.64V951.7H192.28V967.05H183.92V959.375H175.56V967.05H158.84V959.375H142.12V951.7H133.76V944.025H125.4V951.7H117.04V944.025H108.68V928.675H100.32V936.35H91.96V928.675H83.6V921H75.24V905.65H66.88V882.625H58.52V859.6H50.16V813.55H41.8V752.15H33.44V667.725H41.8V644.7H50.16V629.35H58.52V621.675H66.88V614H50.16V621.675H41.8V614H33.44V629.35H25.08V583.3H33.44V567.95H41.8V552.6H50.16V537.25H58.52V529.575H66.88V514.225H75.24V506.55H83.6V498.875H91.96V491.2H108.68V483.525H117.04V475.85H133.76V468.175H142.12V460.5H158.84V452.825H167.2V445.15H175.56V437.475H183.92V429.8H192.28V437.475H209V445.15H225.72V452.825H234.08V429.8H242.44V437.475H250.8V429.8H259.16V437.475H267.52V429.8H284.24V422.125H292.6V414.45H300.96V429.8H309.32V406.775H317.68V437.475H326.04V406.775H334.4V399.1H351.12V406.775H359.48V437.475H351.12V452.825H359.48V460.5H367.84V491.2H376.2V452.825H367.84V422.125H376.2V414.45H384.56V422.125H401.28V429.8H426.36V475.85H434.72V429.8H443.08V437.475H451.44V445.15H459.8V452.825H468.16V460.5H476.52V468.175H484.88V483.525H493.24V506.55H501.6V614H509.96V621.675ZM509.96 383.75H501.6V399.1H509.96V422.125H501.6V414.45H493.24V406.775H468.16V399.1H409.64V383.75H401.28V391.425H392.92V399.1H384.56V391.425H359.48V376.075H367.84V383.75H376.2V368.4H384.56V360.725H392.92V353.05H401.28V360.725H418V368.4H434.72V360.725H443.08V368.4H459.8V383.75H468.16V376.075H476.52V360.725H493.24V368.4H509.96V383.75ZM551.76 383.75V368.4H568.48V360.725H576.84V376.075H585.2V368.4H593.56V353.05H601.92V345.375H618.64V337.7H627V345.375H618.64V353.05H635.36V337.7H643.72V345.375H668.8V353.05H660.44V360.725H652.08V368.4H643.72V376.075H618.64V383.75H585.2V391.425H576.84V399.1H560.12V383.75H551.76ZM1145.32 782.85H1136.96V821.225H1128.6V836.575H1120.24V844.25H1111.88V859.6H1095.16V867.275H1086.8V851.925H1095.16V844.25H1086.8V836.575H1070.08V844.25H1061.72V859.6H1070.08V874.95H1061.72V859.6H1045V867.275H1028.28V859.6H1036.64V851.925H1028.28V844.25H1036.64V828.9H1028.28V821.225H1011.56V828.9H1003.2V836.575H1011.56V859.6H1003.2V844.25H994.84V851.925H986.48V836.575H969.76V844.25H961.4V836.575H953.04V828.9H944.68V836.575H936.32V828.9H911.24V821.225H902.88V813.55H894.52V821.225H869.44V813.55H861.08V805.875H852.72V813.55H836V798.2H827.64V805.875H810.92V813.55H802.56V805.875H785.84V798.2H777.48V805.875H760.76V790.525H752.4V805.875H735.68V798.2H727.32V805.875H710.6V798.2H702.24V805.875H685.52V813.55H660.44V805.875H652.08V813.55H627V798.2H618.64V805.875H601.92V798.2H593.56V790.525H601.92V782.85H593.56V767.5H585.2V644.7H576.84V629.35H585.2V614H576.84V606.325H568.48V583.3H576.84V575.625H585.2V560.275H593.56V552.6H601.92V544.925H627V537.25H618.64V529.575H627V521.9H643.72V514.225H635.36V506.55H618.64V514.225H593.56V521.9H601.92V529.575H610.28V537.25H593.56V544.925H576.84V514.225H568.48V506.55H576.84V468.175H568.48V445.15H576.84V429.8H585.2V422.125H593.56V414.45H601.92V406.775H627V399.1H643.72V391.425H652.08V383.75H660.44V376.075H668.8V368.4H677.16V360.725H685.52V353.05H693.88V360.725H702.24V353.05H710.6V368.4H718.96V360.725H727.32V368.4H735.68V376.075H744.04V383.75H752.4V376.075H760.76V383.75H769.12V376.075H777.48V399.1H785.84V391.425H802.56V399.1H794.2V414.45H802.56V406.775H819.28V422.125H836V429.8H844.36V422.125H852.72V429.8H861.08V437.475H869.44V429.8H877.8V422.125H886.16V437.475H894.52V429.8H911.24V414.45H919.6V406.775H927.96V414.45H919.6V422.125H936.32V414.45H944.68V422.125H953.04V429.8H961.4V437.475H953.04V452.825H961.4V445.15H978.12V468.175H986.48V452.825H994.84V460.5H1003.2V452.825H1019.92V460.5H1045V468.175H1061.72V475.85H1078.44V483.525H1095.16V491.2H1103.52V498.875H1111.88V583.3H1120.24V614H1128.6V637.025H1136.96V652.375H1128.6V660.05H1136.96V690.75H1145.32V782.85ZM1145.32 537.25H1136.96V521.9H1145.32V491.2H1153.68V483.525H1162.04V491.2H1170.4V514.225H1162.04V521.9H1153.68V529.575H1145.32V537.25ZM1738.88 775.175H1730.52V805.875H1722.16V836.575H1713.8V844.25H1697.08V851.925H1688.72V859.6H1680.36V867.275H1646.92V859.6H1621.84V874.95H1613.48V859.6H1605.12V867.275H1596.76V874.95H1588.4V859.6H1580.04V874.95H1571.68V882.625H1554.96V874.95H1538.24V882.625H1529.88V874.95H1521.52V867.275H1496.44V859.6H1488.08V867.275H1479.72V859.6H1454.64V867.275H1463V874.95H1471.36V890.3H1463V897.975H1454.64V890.3H1437.92V882.625H1429.56V897.975H1421.2V890.3H1412.84V882.625H1404.48V890.3H1396.12V874.95H1387.76V882.625H1379.4V890.3H1354.32V882.625H1345.96V890.3H1337.6V882.625H1320.88V890.3H1312.52V874.95H1304.16V882.625H1287.44V874.95H1295.8V867.275H1262.36V859.6H1270.72V851.925H1254V859.6H1245.64V851.925H1237.28V844.25H1228.92V836.575H1220.56V821.225H1212.2V828.9H1203.84V836.575H1195.48V828.9H1203.84V821.225H1195.48V759.825H1187.12V736.8H1195.48V721.45H1187.12V667.725H1178.76V644.7H1170.4V629.35H1162.04V614H1153.68V552.6H1162.04V537.25H1170.4V529.575H1178.76V514.225H1187.12V491.2H1178.76V475.85H1170.4V468.175H1237.28V506.55H1245.64V460.5H1254V452.825H1270.72V445.15H1287.44V452.825H1304.16V460.5H1312.52V514.225H1320.88V483.525H1329.24V475.85H1320.88V452.825H1329.24V445.15H1337.6V437.475H1345.96V429.8H1354.32V437.475H1345.96V468.175H1354.32V445.15H1362.68V437.475H1379.4V429.8H1387.76V437.475H1379.4V445.15H1396.12V460.5H1412.84V475.85H1421.2V468.175H1429.56V506.55H1437.92V491.2H1446.28V498.875H1454.64V506.55H1463V514.225H1454.64V506.55H1446.28V521.9H1454.64V537.25H1471.36V544.925H1479.72V529.575H1488.08V552.6H1504.8V544.925H1496.44V529.575H1504.8V544.925H1521.52V552.6H1529.88V544.925H1538.24V552.6H1554.96V560.275H1563.32V567.95H1580.04V575.625H1621.84V583.3H1655.28V590.975H1672V598.65H1680.36V606.325H1688.72V614H1697.08V621.675H1705.44V637.025H1713.8V683.075H1722.16V706.1H1713.8V713.775H1705.44V721.45H1713.8V729.125H1722.16V736.8H1730.52V752.15H1738.88V775.175ZM1471.36 521.9V529.575H1463V521.9H1471.36ZM1738.88 583.3H1730.52V590.975H1722.16V583.3H1713.8V575.625H1705.44V567.95H1697.08V560.275H1688.72V544.925H1680.36V529.575H1697.08V537.25H1705.44V529.575H1713.8V537.25H1722.16V521.9H1730.52V537.25H1722.16V544.925H1730.52V552.6H1738.88V583.3ZM1747.24 544.925H1738.88V529.575H1747.24V521.9H1755.6V537.25H1747.24V544.925ZM2081.64 606.325H2073.28V614H2081.64V683.075H2073.28V744.475H2064.92V790.525H2056.56V821.225H2048.2V836.575H2039.84V844.25H2031.48V851.925H2023.12V867.275H2014.76V859.6H2006.4V874.95H1998.04V867.275H1981.32V874.95H1972.96V882.625H1964.6V874.95H1956.24V859.6H1947.88V874.95H1939.52V867.275H1931.16V874.95H1922.8V867.275H1931.16V859.6H1922.8V851.925H1906.08V859.6H1897.72V867.275H1906.08V874.95H1897.72V867.275H1889.36V874.95H1881V867.275H1872.64V874.95H1855.92V867.275H1847.56V874.95H1839.2V859.6H1830.84V851.925H1822.48V836.575H1814.12V813.55H1805.76V782.85H1797.4V752.15H1789.04V721.45H1780.68V706.1H1772.32V675.4H1780.68V667.725H1797.4V675.4H1805.76V698.425H1814.12V690.75H1830.84V683.075H1822.48V675.4H1814.12V667.725H1805.76V629.35H1797.4V621.675H1805.76V614H1780.68V621.675H1772.32V629.35H1780.68V660.05H1763.96V614H1755.6V598.65H1763.96V583.3H1780.68V575.625H1805.76V567.95H1822.48V560.275H1830.84V552.6H1839.2V544.925H1855.92V537.25H1864.28V544.925H1881V537.25H1897.72V529.575H1906.08V537.25H1914.44V544.925H1922.8V529.575H1931.16V514.225H1939.52V521.9H1947.88V529.575H1956.24V514.225H1972.96V521.9H1981.32V529.575H1989.68V506.55H1998.04V498.875H2006.4V506.55H2014.76V514.225H2031.48V521.9H2048.2V529.575H2056.56V537.25H2064.92V544.925H2073.28V567.95H2081.64V606.325Z" fill="#222034"/>
</svg>
